<svg width="121" height="33" viewBox="0 0 121 33" fill="none" xmlns="http://www.w3.org/2000/svg">
<path d="M16.715 7.932C16.647 7.842 16.409 7.672 16.001 7.422C15.593 7.172 15.083 6.912 14.471 6.64C13.859 6.368 13.19 6.13 12.465 5.926C11.7572 5.72446 11.0249 5.62149 10.289 5.62C8.294 5.62 7.297 6.289 7.297 7.626C7.297 8.034 7.404 8.374 7.62 8.646C7.835 8.918 8.152 9.162 8.572 9.377C8.991 9.592 9.518 9.791 10.152 9.972L11.558 10.365L12.363 10.584C13.519 10.901 14.561 11.247 15.491 11.621C16.42 11.995 17.208 12.46 17.854 13.015C18.4985 13.5682 19.0098 14.2597 19.35 15.038C19.7 15.831 19.877 16.783 19.877 17.894C19.877 19.254 19.622 20.404 19.112 21.345C18.602 22.285 17.927 23.045 17.089 23.623C16.249 24.201 15.287 24.62 14.199 24.881C13.111 25.141 11.989 25.272 10.833 25.272C8.99121 25.2615 7.16001 24.9926 5.393 24.473C4.509 24.213 3.653 23.901 2.826 23.538C2.02395 23.1895 1.25542 22.7684 0.529999 22.28L2.978 17.418C3.068 17.531 3.363 17.747 3.862 18.064C4.36 18.381 4.978 18.699 5.715 19.016C6.451 19.333 7.273 19.616 8.18 19.866C9.086 20.116 10.004 20.24 10.934 20.24C12.906 20.24 13.892 19.64 13.892 18.438C13.892 17.985 13.744 17.611 13.45 17.316C13.155 17.021 12.747 16.755 12.226 16.517C11.7372 16.2982 11.2349 16.1111 10.722 15.957L9.02 15.462L8.044 15.174C6.933 14.834 5.97 14.466 5.154 14.069C4.338 13.672 3.664 13.213 3.131 12.692C2.60788 12.1851 2.20176 11.5701 1.941 10.89C1.68 10.21 1.55 9.417 1.55 8.51C1.55 7.24 1.788 6.119 2.264 5.144C2.72289 4.19108 3.38429 3.34982 4.202 2.679C5.04251 1.99721 6.00636 1.48353 7.041 1.166C8.117 0.826 9.256 0.656 10.458 0.656C11.296 0.656 12.124 0.736 12.94 0.894C13.756 1.053 14.538 1.257 15.286 1.506C16.034 1.756 16.731 2.039 17.376 2.356C18.023 2.673 18.618 2.991 19.162 3.308L16.714 7.932H16.715ZM40.139 25H34.699V14.97C34.699 13.814 34.472 12.964 34.019 12.42C33.565 11.876 32.942 11.604 32.149 11.604C31.831 11.604 31.486 11.678 31.112 11.825C30.7186 11.9838 30.3517 12.2016 30.024 12.471C29.6617 12.7653 29.336 13.102 29.054 13.474C28.757 13.8638 28.5271 14.3005 28.374 14.766V25H22.934V0.18H28.374V10.142C29.0047 9.10199 29.9034 8.25063 30.976 7.677C32.052 7.099 33.236 6.81 34.529 6.81C35.73 6.81 36.699 7.02 37.436 7.439C38.172 7.859 38.739 8.391 39.136 9.037C39.532 9.683 39.799 10.408 39.935 11.213C40.071 12.018 40.139 12.805 40.139 13.576V25V25ZM52.479 25.34C50.96 25.34 49.606 25.09 48.416 24.592C47.226 24.093 46.223 23.419 45.406 22.569C44.5916 21.721 43.9611 20.714 43.554 19.611C43.1337 18.4855 42.9203 17.2934 42.924 16.092C42.924 14.868 43.134 13.695 43.554 12.573C43.9614 11.4699 44.5923 10.4629 45.407 9.615C46.223 8.765 47.226 8.085 48.416 7.575C49.606 7.065 50.96 6.81 52.479 6.81C53.998 6.81 55.346 7.065 56.525 7.575C57.704 8.085 58.701 8.765 59.517 9.615C60.3331 10.4651 60.9691 11.4712 61.387 12.573C61.8179 13.696 62.0369 14.8892 62.033 16.092C62.0367 17.2934 61.8233 18.4855 61.403 19.611C60.9959 20.714 60.3654 21.721 59.551 22.569C58.735 23.419 57.731 24.093 56.541 24.592C55.351 25.091 53.998 25.34 52.479 25.34V25.34ZM48.5 16.092C48.5 17.497 48.874 18.625 49.622 19.475C50.37 20.325 51.322 20.75 52.478 20.75C53.0183 20.7558 53.5529 20.6396 54.042 20.41C54.518 20.183 54.932 19.866 55.282 19.458C55.6499 19.0214 55.9328 18.5198 56.116 17.979C56.3248 17.372 56.4283 16.7338 56.422 16.092C56.422 14.687 56.048 13.559 55.3 12.709C54.552 11.859 53.611 11.434 52.478 11.434C51.9391 11.4297 51.4058 11.543 50.9152 11.7662C50.4247 11.9893 49.9888 12.3169 49.638 12.726C49.2708 13.1627 48.9886 13.6644 48.806 14.205C48.5972 14.812 48.4937 15.4502 48.5 16.092V16.092ZM76.276 11.808C74.961 11.831 73.771 12.046 72.706 12.454C71.641 12.862 70.87 13.474 70.394 14.29V25H64.954V7.15H69.952V10.754C70.564 9.553 71.352 8.612 72.315 7.932C73.278 7.252 74.304 6.901 75.392 6.878H75.936C76.049 6.878 76.163 6.889 76.276 6.912V11.808V11.808ZM90.35 24.048C89.5136 24.3959 88.6563 24.6912 87.783 24.932C86.82 25.204 85.851 25.34 84.876 25.34C84.196 25.34 83.556 25.255 82.956 25.085C82.3774 24.9267 81.8384 24.6487 81.374 24.269C80.921 23.895 80.564 23.402 80.304 22.79C80.042 22.178 79.912 21.441 79.912 20.58V11.264H77.634V7.15H79.912V1.472H85.352V7.15H88.99V11.264H85.352V18.71C85.352 19.3 85.499 19.724 85.794 19.985C86.089 20.245 86.463 20.376 86.916 20.376C87.324 20.376 87.743 20.308 88.174 20.172C88.604 20.036 88.979 19.889 89.296 19.73L90.35 24.048V24.048ZM92.627 0.18H98.067V18.642C98.067 20.002 98.645 20.682 99.801 20.682C100.073 20.682 100.373 20.642 100.702 20.563C101.031 20.483 101.332 20.365 101.603 20.206L102.317 24.286C101.637 24.603 100.855 24.853 99.971 25.034C99.087 25.215 98.26 25.306 97.489 25.306C95.925 25.306 94.724 24.898 93.885 24.082C93.046 23.266 92.627 22.087 92.627 20.546V0.18V0.18ZM104.083 27.686C104.537 27.845 104.962 27.958 105.358 28.026C105.712 28.09 106.07 28.1241 106.429 28.128C107.087 28.128 107.597 27.901 107.959 27.448C108.322 26.995 108.651 26.178 108.945 25L102.145 7.15H107.755L111.903 20.342L115.473 7.15H120.573L113.773 27.89C113.324 29.3254 112.431 30.5813 111.223 31.477C109.999 32.395 108.549 32.854 106.871 32.854C106.409 32.8533 105.949 32.8135 105.494 32.735C105.012 32.6508 104.54 32.5199 104.084 32.344V27.686H104.083Z" fill="white"/>
</svg>
