<svg width="1600" height="250" viewBox="0 0 1600 250" fill="none" xmlns="http://www.w3.org/2000/svg">
<g clip-path="url(#clip0)">
<path fill-rule="evenodd" clip-rule="evenodd" d="M829 -76.482C829 6.35101 853.36 65.678 943.732 104C1034.1 142.321 1121.42 107.352 1209.01 127.4C1296.6 147.448 1296.6 276.595 1379.09 356.071C1461.57 435.547 1680.5 294.5 1680.5 294.5C1680.5 294.5 1457.5 191.5 1482.5 94.5C1494 16.5 1691.5 -30.5 1691.5 -30.5C1691.5 -30.5 829 -159.314 829 -76.482ZM-264.351 557.909C-234.666 635.24 -190.662 681.897 -92.561 685.286C5.54099 688.676 74.524 624.739 163.482 612.066C252.44 599.392 298.722 719.961 404.212 764.598C509.7 809.236 678.987 764.931 782.112 638.976C885.24 513.021 877.62 314.29 798.392 225.798C719.162 137.307 607.257 71.743 242.5 211.76C-122.257 351.777 -294.036 480.578 -264.351 557.909ZM-515 -390.482C-515 -307.649 -490.64 -248.322 -400.268 -210C-309.897 -171.679 -222.582 -206.648 -134.991 -186.6C-47.401 -166.552 -47.401 -37.405 35.086 42.071C117.572 121.547 291.491 140.852 432.906 60.221C574.321 -20.411 638.426 -208.675 596.173 -319.681C553.919 -430.687 472.943 -532 82.236 -532C-308.471 -532 -515 -473.314 -515 -390.482Z" fill="#4B3F6B"/>
</g>
<defs>
<clipPath id="clip0">
<rect width="1600" height="250" fill="white"/>
</clipPath>
</defs>
</svg>
